<svg width="304" height="322" viewBox="0 0 304 322" fill="none" xmlns="http://www.w3.org/2000/svg">
        <g clip-path="url(#clip0_856_509)">
        <path d="M219.812 129.75C227.625 129.75 233.875 123.5 233.875 115.687C233.875 123.453 227.578 129.75 219.812 129.75ZM205.75 115.687C205.75 123.5 212 129.75 219.812 129.75C212.046 129.75 205.75 123.453 205.75 115.687ZM134.928 158.825C138.243 163.719 143.609 167.137 149.89 167.769C143.668 167.137 138.268 163.737 134.928 158.825ZM219.812 101.625C227.578 101.625 233.875 107.922 233.875 115.687C233.875 107.875 227.625 101.625 219.812 101.625Z" fill="none"/>
        <path d="M219.812 140.375C235.756 140.375 249.069 153.356 251.553 170.312C251.837 167.247 252 164.144 252 161C252 143.797 247.653 127.606 240 113.469C240.078 114.197 240.125 114.938 240.125 115.688C240.125 126.938 231.062 136 219.812 136C208.562 136 199.5 126.938 199.5 115.688C199.5 104.438 208.562 95.375 219.812 95.375C223.325 95.375 226.622 96.2594 229.497 97.8156C211.163 75.35 183.259 61 152 61C120.741 61 92.8375 75.35 74.5031 97.8156C77.3781 96.2594 80.675 95.375 84.1875 95.375C95.4375 95.375 104.5 104.438 104.5 115.688C104.5 126.938 95.4375 136 84.1875 136C72.9375 136 63.875 126.938 63.875 115.688C63.875 114.938 63.9219 114.197 64 113.469C56.3469 127.606 52 143.797 52 161C52 164.144 52.1625 167.247 52.4469 170.312C54.9313 153.356 68.2437 140.375 84.1875 140.375C101.688 140.375 115.75 156 116.062 175.375H53.0437C60.0156 223.791 101.656 261 152 261C202.344 261 243.984 223.791 250.956 175.375H187.625C187.938 156 202.312 140.375 219.812 140.375ZM152 120.062C167 120.062 178.875 132.25 178.875 146.938C178.875 161.625 166.688 173.812 152 173.812C137.312 173.812 125.125 161.625 125.125 146.938C125.125 132.25 137 120.062 152 120.062ZM194.812 226.625H109.187C109.812 200.688 128.562 180.062 152 180.062C175.438 180.062 194.188 200.688 194.812 226.625Z" fill="none"/>
        <path d="M154.11 167.769C160.388 167.137 165.756 163.719 169.072 158.825C165.731 163.737 160.331 167.137 154.11 167.769ZM219.813 101.625C212 101.625 205.75 107.875 205.75 115.687C205.75 107.922 212.047 101.625 219.813 101.625ZM140.41 130.191C135.525 133.506 132.113 138.869 131.481 145.137C132.113 138.928 135.503 133.531 140.41 130.191Z" fill="#172554"/>
        <path d="M133.853 157.056C133.941 157.219 134.047 157.369 134.138 157.531C134.381 157.953 134.625 158.378 134.897 158.781C134.906 158.797 134.919 158.809 134.931 158.825C138.269 163.737 143.672 167.137 149.894 167.769C150.584 167.837 151.288 167.875 152 167.875C152.713 167.875 153.416 167.837 154.109 167.769C160.331 167.137 165.731 163.737 169.072 158.825C169.081 158.809 169.094 158.797 169.106 158.781C169.378 158.378 169.622 157.953 169.866 157.531C169.956 157.372 170.062 157.219 170.15 157.056C170.316 156.747 170.456 156.422 170.606 156.106C170.744 155.819 170.894 155.537 171.019 155.244C171.116 155.016 171.188 154.775 171.275 154.541C171.425 154.144 171.581 153.753 171.709 153.347C171.766 153.169 171.8 152.981 171.85 152.8C171.981 152.331 172.112 151.862 172.212 151.381C172.262 151.144 172.284 150.897 172.325 150.653C172.397 150.219 172.478 149.791 172.522 149.35C172.591 148.662 172.628 147.962 172.628 147.256C172.628 136.006 163.253 126.631 152.003 126.631C151.297 126.631 150.6 126.669 149.909 126.737C149.466 126.781 149.031 126.862 148.597 126.937C148.359 126.978 148.113 127 147.878 127.047C147.391 127.147 146.919 127.281 146.444 127.412C146.269 127.462 146.084 127.497 145.913 127.55C145.5 127.678 145.1 127.837 144.697 127.991C144.469 128.078 144.234 128.147 144.013 128.241C143.713 128.366 143.431 128.519 143.137 128.656C142.822 128.806 142.503 128.944 142.197 129.109C142.031 129.197 141.878 129.303 141.719 129.397C141.297 129.641 140.878 129.881 140.475 130.153C140.453 130.169 140.434 130.184 140.413 130.2C135.509 133.537 132.116 138.934 131.484 145.147C131.412 145.834 131.375 146.537 131.375 147.25C131.375 147.956 131.413 148.656 131.481 149.344C131.525 149.784 131.606 150.216 131.678 150.647C131.719 150.887 131.741 151.134 131.791 151.375C131.888 151.856 132.022 152.325 132.153 152.794C132.203 152.975 132.238 153.162 132.294 153.341C132.419 153.747 132.578 154.141 132.728 154.534C132.816 154.769 132.891 155.009 132.984 155.237C133.109 155.531 133.259 155.812 133.397 156.1C133.547 156.422 133.684 156.747 133.853 157.056Z" fill="white"/>
        <path d="M152 173.812C166.688 173.812 178.875 161.625 178.875 146.938C178.875 132.25 167 120.062 152 120.062C137 120.062 125.125 132.25 125.125 146.938C125.125 161.625 137.313 173.812 152 173.812ZM132.725 154.537C132.575 154.141 132.419 153.75 132.291 153.344C132.234 153.166 132.2 152.978 132.15 152.797C132.019 152.328 131.887 151.859 131.787 151.378C131.737 151.141 131.716 150.894 131.675 150.65C131.603 150.216 131.522 149.788 131.478 149.347C131.408 148.651 131.373 147.952 131.372 147.253C131.372 146.541 131.409 145.838 131.478 145.144C132.109 138.872 135.522 133.512 140.406 130.197C140.428 130.181 140.447 130.166 140.469 130.15C140.869 129.878 141.291 129.637 141.713 129.394C141.875 129.3 142.028 129.194 142.191 129.106C142.497 128.941 142.819 128.803 143.131 128.653C143.422 128.516 143.706 128.363 144.006 128.238C144.228 128.144 144.462 128.072 144.691 127.988C145.094 127.834 145.491 127.675 145.906 127.547C146.081 127.494 146.262 127.459 146.438 127.409C146.912 127.278 147.388 127.144 147.872 127.044C148.109 126.997 148.353 126.975 148.591 126.934C149.025 126.863 149.459 126.781 149.903 126.734C150.597 126.663 151.294 126.625 152 126.625C163.25 126.625 172.625 136 172.625 147.25C172.625 147.956 172.588 148.656 172.519 149.344C172.475 149.784 172.394 150.216 172.322 150.647C172.281 150.888 172.259 151.134 172.209 151.375C172.112 151.856 171.978 152.325 171.847 152.794C171.797 152.975 171.763 153.163 171.706 153.341C171.581 153.747 171.422 154.141 171.272 154.534C171.184 154.769 171.109 155.009 171.016 155.238C170.891 155.531 170.741 155.812 170.603 156.1C170.453 156.419 170.312 156.744 170.147 157.05C170.059 157.213 169.953 157.363 169.862 157.525C169.619 157.947 169.375 158.372 169.103 158.775C169.094 158.791 169.081 158.803 169.069 158.819C165.753 163.713 160.388 167.131 154.106 167.763C153.416 167.838 152.713 167.875 152 167.875C151.288 167.875 150.584 167.838 149.891 167.769C143.613 167.138 138.244 163.719 134.928 158.825C134.919 158.809 134.906 158.797 134.894 158.781C134.622 158.378 134.378 157.953 134.134 157.531C134.044 157.372 133.937 157.219 133.85 157.056C133.684 156.747 133.544 156.422 133.394 156.106C133.256 155.819 133.106 155.538 132.981 155.244C132.887 155.013 132.813 154.772 132.725 154.537Z" fill="white"/>
        <path d="M152 186.312C134.188 186.312 119.188 201 116.062 220.375H187.938C184.812 201 169.812 186.312 152 186.312Z" fill="white"/>
        <path d="M152 180.062C128.563 180.062 109.812 200.688 109.188 226.625H194.813C194.188 200.688 175.438 180.062 152 180.062ZM116.063 220.375C119.188 201 134.188 186.312 152 186.312C169.812 186.312 184.812 201 187.938 220.375H116.063Z" fill="white"/>
        <path d="M84.1875 101.625C76.375 101.625 70.125 107.875 70.125 115.688C70.125 123.5 76.375 129.75 84.1875 129.75C92 129.75 98.25 123.5 98.25 115.688C98.25 107.875 92 101.625 84.1875 101.625Z" fill="white"/>
        <path d="M84.1875 136C95.4375 136 104.5 126.938 104.5 115.688C104.5 104.438 95.4375 95.375 84.1875 95.375C80.675 95.375 77.3781 96.2594 74.5031 97.8156C71.6151 99.3781 69.1503 101.619 67.3211 104.346C65.4919 107.073 64.3532 110.204 64.0031 113.469C63.9193 114.205 63.8766 114.946 63.875 115.688C63.875 126.938 72.9375 136 84.1875 136ZM84.1875 129.75C76.375 129.75 70.125 123.5 70.125 115.688C70.125 107.875 76.375 101.625 84.1875 101.625C92 101.625 98.25 107.875 98.25 115.688C98.25 123.5 92 129.75 84.1875 129.75Z" fill="white"/>
        <path d="M84.1875 146.625C72 146.625 61.6875 156.312 58.875 169.125H109.187C106.375 156.312 96.375 146.625 84.1875 146.625Z" fill="white"/>
        <path d="M84.1875 140.375C68.2437 140.375 54.9313 153.356 52.4469 170.312C52.2031 171.969 52.0281 173.65 52 175.375H116.062C115.75 156 101.688 140.375 84.1875 140.375ZM84.1875 146.625C96.375 146.625 106.375 156.312 109.187 169.125H58.875C61.6875 156.312 72 146.625 84.1875 146.625Z" fill="white"/>
        <path d="M205.75 115.688C205.75 119.417 207.232 122.994 209.869 125.631C212.506 128.268 216.083 129.75 219.812 129.75C223.542 129.75 227.119 128.268 229.756 125.631C232.393 122.994 233.875 119.417 233.875 115.688C233.875 111.958 232.393 108.381 229.756 105.744C227.119 103.107 223.542 101.625 219.812 101.625C216.083 101.625 212.506 103.107 209.869 105.744C207.232 108.381 205.75 111.958 205.75 115.688Z" fill="white"/>
        <path d="M199.5 115.688C199.5 126.938 208.562 136 219.812 136C231.062 136 240.125 126.938 240.125 115.688C240.125 114.938 240.078 114.197 240 113.469C239.269 106.681 235.222 100.913 229.5 97.8156C226.622 96.2594 223.325 95.375 219.812 95.375C208.562 95.375 199.5 104.438 199.5 115.688ZM219.812 129.75C212 129.75 205.75 123.5 205.75 115.688C205.75 107.875 212 101.625 219.812 101.625C227.625 101.625 233.875 107.875 233.875 115.688C233.875 123.5 227.625 129.75 219.812 129.75Z" fill="white"/>
        <path d="M219.969 146.088C219.912 146.088 219.859 146.078 219.806 146.078C207.356 146.078 196.544 156.234 193.594 169.669H246.019C245.836 168.838 245.623 168.015 245.381 167.2C241.772 155.069 231.878 146.169 219.969 146.088Z" fill="white"/>
        <path d="M251.553 170.312C249.069 153.356 235.756 140.375 219.812 140.375C202.312 140.375 187.937 156 187.625 175.375H252C251.972 173.65 251.797 171.969 251.553 170.312ZM193.919 169.672H193.594C196.544 156.238 207.356 146.081 219.806 146.081C219.862 146.081 219.916 146.091 219.969 146.091C231.878 146.172 241.772 155.072 245.381 167.206C245.623 168.021 245.836 168.845 246.019 169.675H193.919V169.672Z" fill="white"/>
        </g>
        <defs>
        <clipPath id="clip0_856_509">
        <rect width="200" height="200" fill="white" transform="translate(52 61)"/>
        </clipPath>
        </defs>
</svg>