 <svg
        width="max-497"
        height="497"
        viewBox="0 0 497 497"
        fill="none"
        xmlns="http://www.w3.org/2000/svg"
      >
        <g clip-path="url(#clip0_840_529)">
          <path
            d="M248.1 0C111.1 0 0 111.1 0 248.1C0 385.1 111.1 496.2 248.1 496.2C385.1 496.2 496.2 385.1 496.2 248.1C496.2 111.1 385.1 0 248.1 0Z"
            fill="none"></path>
          <path d="M290.9 324.9H205.1V356.4H290.9V324.9Z" fill="#1D2D33"></path>
          <path
            d="M287 282.1H209.2C221.3 318.7 210.2 335.4 210.2 335.4L237.1 341.5H259.1L286 335.4C286 335.4 274.9 318.7 287 282.1Z"
            fill="#E2A379"></path>
          <path
            d="M247.9 317L210.2 335.4C210.2 335.4 227 363.5 247.8 363.5C268.6 363.5 286 335.4 286 335.4L247.9 317Z"
            fill="#E2A379"></path>
          <path
            d="M285.9 335.4C285.9 335.4 277 352.7 247.8 352.7C218.6 352.7 210.3 335.4 210.3 335.4C210.3 335.4 203.3 390.1 248.2 390.1C293.1 390.1 285.9 335.4 285.9 335.4Z"
            fill="#E2A379"></path>
          <path
            d="M394.8 382.8C387.5 355.5 324.9 333.5 247.7 333.5C170.5 333.5 108.6 355.6 101.3 382.8C98.0002 395 94.3002 418 91.2002 440.3C133.9 475.2 188.6 496.2 248.1 496.2C307.6 496.2 362.2 475.2 405 440.3C401.8 417.9 398.1 394.9 394.8 382.8Z"
            fill="#E2A379"></path>
          <path
            d="M394.8 382.8C387.5 355.5 324.9 333.5 247.7 333.5C170.5 333.5 108.6 355.6 101.3 382.8C98.0002 395 94.3002 418 91.2002 440.3C133.9 475.2 188.6 496.2 248.1 496.2C307.6 496.2 362.2 475.2 405 440.3C401.8 417.9 398.1 394.9 394.8 382.8Z"
            fill="#334D5C"></path>
          <path
            d="M317.9 441C320.496 441 322.6 438.896 322.6 436.3C322.6 433.704 320.496 431.6 317.9 431.6C315.304 431.6 313.2 433.704 313.2 436.3C313.2 438.896 315.304 441 317.9 441Z"
            fill="#263A44"></path>
          <path
            d="M288 425.9V492.9C289 492.7 290 492.6 291 492.4V444.2L318.2 449.3L344.7 444.3V476.7C345.7 476.3 346.7 475.9 347.7 475.4V426H288V425.9ZM344.7 441.2L318.2 446.2L291 441.1V428.8H344.7V441.2Z"
            fill="#263A44"></path>
          <path
            d="M148.5 425.9V475.3C149.5 475.7 150.5 476.2 151.5 476.6V444.2L178.7 449.3L205.2 444.3V492.5C206.2 492.7 207.2 492.8 208.2 493V426H148.5V425.9ZM205.2 441.2L178.7 446.2L151.5 441.1V428.8H205.2V441.2Z"
            fill="#263A44"></path>
          <path
            d="M178.3 441C180.895 441 183 438.896 183 436.3C183 433.704 180.895 431.6 178.3 431.6C175.704 431.6 173.6 433.704 173.6 436.3C173.6 438.896 175.704 441 178.3 441Z"
            fill="#263A44"></path>
          <path
            d="M247.8 333.4C231.9 333.4 216.6 334.3 202.3 336.1L248.1 427.1L293.9 336.2C279.4 334.4 263.9 333.4 247.8 333.4Z"
            fill="#263A44"></path>
          <path
            d="M248.8 407.1C249.1 407.4 205.1 324.9 205.1 324.9L169.1 339.1L176.1 362.1H208.1L197.1 373.1L248.8 407.1Z"
            fill="#263A44"></path>
          <path
            d="M327 339.1L291 324.9C291 324.9 247 407.4 247.3 407.1L299 373.1L288 362.1H320L327 339.1Z"
            fill="#263A44"></path>
          <path
            d="M297.9 175.1L190.3 169.4C99.5997 260.5 155.1 319.3 172.9 348C208.7 405.7 169.3 425.7 169.3 425.7L171.2 424.7C171.2 424.7 241 411.2 214.9 348.5C201.9 317.4 193.8 250.5 297.9 175.1Z"
            fill="#3A1D12"></path>
          <path
            d="M248.101 61.6C204.101 61.6 168.301 82.8 168.301 175.2C168.301 206.5 173.901 231 182.301 249.9C200.701 291.5 232.601 306 248.101 306C263.601 306 295.401 291.5 313.901 249.9C322.301 231 327.901 206.5 327.901 175.2C327.901 82.8 292.101 61.6 248.101 61.6Z"
            fill="#F4B382"></path>
          <path
            d="M169.8 178C162.2 179.3 156.4 182.6 160.7 207.7C165 232.9 170.3 234 178 232.7L169.8 178Z"
            fill="#F4B382"></path>
          <path
            d="M326.5 178L318.4 232.8C326 234.1 331.4 232.9 335.7 207.8C339.9 182.6 334.1 179.3 326.5 178Z"
            fill="#F4B382"></path>
          <path
            d="M248.1 61.6C190.8 61.6 165.4 86.7 165.4 179.1L174.9 171.2C220.7 171.2 259.8 144.3 288.1 118.9C300.1 152 330.8 179 330.8 179C330.8 86.7 305.4 61.6 248.1 61.6Z"
            fill="#3A1D12"></path>
          <path
            d="M319.1 77.9C306.5 59.3 271.9 43.1 248.3 43.1C224.7 43.1 189.9 59.3 177.3 77.9C165.5 95.2 162.5 144.6 166.8 144.6H329.5C332.4 144.6 330.9 95.3 319.1 77.9Z"
            fill="#E5AA17"></path>
          <path
            d="M165.1 138.6L165.9 158.3C165.9 158.3 201.3 161.9 248.1 161.9C294.9 161.9 330.2 158.3 330.2 158.3L330.4 138.6H165.1Z"
            fill="#EFC76C"></path>
          <path
            d="M248.1 39.9C232.3 39.9 219.4 43.1 219.4 49.7V70.9C219.4 77.5 232.2 152.1 248.1 152.1C263.9 152.1 276.8 77.6 276.8 70.9V49.8C276.8 43.1 263.9 39.9 248.1 39.9Z"
            fill="#E5AA17"></path>
          <path
            d="M219.5 49.8C219.5 49.7 219.5 49.7 219.5 49.8C219.4 49.7 219.3 49.7 219.3 49.8C218.6 51.6 218.2 53.3 218 55.1C217.8 56 217.8 56.9 217.7 57.7C217.6 58.6 217.6 59.5 217.6 60.3C217.6 61.2 217.6 62.1 217.7 62.9C217.8 63.8 217.8 64.7 218 65.5C218.2 67.3 218.6 69 219.3 70.8C219.3 70.8 219.3 70.9 219.4 70.9C219.5 70.9 219.5 70.9 219.5 70.8L219.6 60.2L219.5 49.8Z"
            fill="#C18D17"></path>
          <path
            d="M278.5 57.7C278.4 56.8 278.4 55.8999 278.2 55.0999C278 53.2999 277.6 51.5999 276.9 49.7999C276.9 49.7999 276.9 49.7 276.8 49.7C276.7 49.7 276.7 49.6999 276.7 49.7999L276.6 60.4L276.7 71C276.7 71 276.7 71.0999 276.8 71.0999C276.8 71.0999 276.9 71.1 276.9 71C277.6 69.2 278 67.4999 278.2 65.6999C278.4 64.7999 278.4 63.8999 278.5 63.0999C278.6 62.1999 278.6 61.3 278.6 60.5C278.5 59.5 278.5 58.6 278.5 57.7Z"
            fill="#C18D17"></path>
          <path
            d="M265.1 46.4C265.1 39.8 257.5 34.4 248.1 34.4C238.7 34.4 231.1 39.8 231.1 46.4L219.8 136.7C219.8 143.3 238.7 148.7 248.1 148.7C257.5 148.7 276.4 143.3 276.4 136.7L265.1 46.4Z"
            fill="#F4B21E"></path>
          <path
            d="M326.9 127.1C315.2 126.6 281.5 134.1 248.1 134.1C215.1 134.1 182.4 126.6 171 127.1C159.7 127.1 156 149.1 156 149.1C156 149.1 195.7 153.2 248.2 153.2C300.7 153.2 340.3 149.1 340.3 149.1C340.3 149.1 336.7 127.1 326.9 127.1Z"
            fill="#E5AA17"></path>
          <path
            d="M309.5 131.1C302.6 131.5 295.8 131.9 288.9 132.2C275.1 132.8 261.4 133.2 247.6 133.1C233.8 133.2 220.1 132.7 206.3 132.1C199.4 131.8 192.5 131.4 185.7 131C178.8 130.6 172 130.1 165.1 129.6C171.9 130.6 178.8 131.3 185.6 132C192.5 132.6 199.3 133.2 206.2 133.7C220 134.6 233.8 135 247.5 135.1C261.3 135 275.1 134.6 288.9 133.7C295.8 133.2 302.7 132.7 309.5 132C316.4 131.3 323.2 130.6 330 129.6C323.2 130.1 316.4 130.7 309.5 131.1Z"
            fill="#C18D17"></path>
          <path
            d="M258.5 257.8C255.5 257.4 248.1 260.3 248.1 260.3C248.1 260.3 240.5 257.4 237.5 257.8C232.7 258.5 221.4 262.4 221.4 263.8C221.4 263.8 235.6 273.4 248.1 273.4C260.6 273.4 274.8 263.8 274.8 263.8C274.8 263.8 263.4 258.5 258.5 257.8Z"
            fill="#CC785E"></path>
          <path
            d="M254.2 264.4C252.2 264.3 249.7 266.1 248.1 266.1C246.2 266.1 243.3 264.3 241.1 264.5C228 265.3 221.5 263.8 221.5 263.8C221.5 263.8 235.7 277.3 248.2 277.3C260.7 277.3 274.9 263.8 274.9 263.8C274.9 263.8 267.9 265.2 254.2 264.4Z"
            fill="#C16952"></path>
          <path
            d="M174.8 183.1C174.4 180.4 174.3 177.9 174.4 176C174.5 173.1 174.9 171.3 174.9 171.3L165.5 174.8C165.5 176.2 165.5 177.7 165.5 179.1C165.5 179.1 166.5 178.8 168.3 178.2C168.2 178.2 168.1 178.3 168 178.3C169.3 180.5 170.9 183.9 172.5 188.8C172.4 188.8 176.1 191.5 174.8 183.1Z"
            fill="#3A1D12"></path>
          <path
            d="M330.7 174.8L321.4 168.6C321.4 168.6 321.8 173.1 321.9 176C322 178 321.9 180.4 321.5 183.1C320.2 191.5 323.8 188.8 323.8 188.8C325.3 183.8 327 180.5 328.2 178.3C329.8 178.9 330.7 179.1 330.7 179.1C330.8 177.6 330.8 176.2 330.7 174.8Z"
            fill="#3A1D12"></path>
          <path
            d="M247.8 322.9C219.6 322.9 210.4 335.3 210.4 335.3L248.2 396.6L286 335.3C285.9 335.3 275.9 322.9 247.8 322.9Z"
            fill="#E2A379"></path>
          <path
            d="M255.1 496.1V407.1H241.1V496.1C243.4 496.2 245.8 496.2 248.1 496.2C250.4 496.2 252.8 496.1 255.1 496.1Z"
            fill="#263A44"></path>
        </g>
        <defs>
          <clipPath id="clip0_840_529">
            <rect width="496.2" height="496.2" fill="white"></rect>
          </clipPath>
        </defs>
      </svg>